<svg xmlns="http://www.w3.org/2000/svg" role="img" aria-labelledby="VIEW-COFFEE-DEPLOYMENT-title" viewBox="0 0 1276 922" data-source="examples/coffee-appliance-six-view/engmod.yml" data-view="VIEW-COFFEE-DEPLOYMENT">
<title id="VIEW-COFFEE-DEPLOYMENT-title">VIEW-COFFEE-DEPLOYMENT — deployment view</title>
<metadata>source=examples/coffee-appliance-six-view/engmod.yml; view=VIEW-COFFEE-DEPLOYMENT; kind=deployment</metadata>
<defs><marker id="arrow" markerWidth="8" markerHeight="8" refX="7" refY="4" orient="auto"><path d="M0,0 L8,4 L0,8 z" fill="#455a64"/></marker></defs>
<rect width="100%" height="100%" fill="#ffffff"/>
<text x="36" y="30" font-family="monospace" font-size="18" font-weight="bold">VIEW-COFFEE-DEPLOYMENT</text>
<text x="610" y="78" font-family="monospace" font-size="14" font-weight="bold">Relationships · numbered arrows point to the destination</text>
<path data-edge="REL-CHASSIS-WATER" d="M376 208 H436 V494 H376" fill="none" stroke="#78909c" marker-end="url(#arrow)"/>
<rect x="384" y="196" width="34" height="16" rx="3" fill="white"/><text x="387" y="208" font-family="monospace" font-size="11">1</text>
<text x="610" y="100" font-family="monospace" font-size="12" font-weight="normal">1. REL-CHASSIS-WATER</text>
<text x="610" y="118" font-family="monospace" font-size="12" font-weight="normal">HW-APPLIANCE-CHASSIS → HW-WATER-SYSTEM</text>
<text x="610" y="136" font-family="monospace" font-size="12" font-weight="normal">contains</text>
<path data-edge="REL-HW-DEPLOYMENT" d="M376 118 H454 V226 H376" fill="none" stroke="#78909c" marker-end="url(#arrow)"/>
<rect x="384" y="106" width="34" height="16" rx="3" fill="white"/><text x="387" y="118" font-family="monospace" font-size="11">2</text>
<text x="610" y="166" font-family="monospace" font-size="12" font-weight="normal">2. REL-HW-DEPLOYMENT</text>
<text x="610" y="184" font-family="monospace" font-size="12" font-weight="normal">DEP-COUNTERTOP-DEVICE → HW-APPLIANCE-CHASSIS</text>
<text x="610" y="202" font-family="monospace" font-size="12" font-weight="normal">contains</text>
<path data-edge="REL-SW-COORDINATOR" d="M376 600 H472 V724 H376" fill="none" stroke="#78909c" marker-end="url(#arrow)"/>
<rect x="384" y="588" width="34" height="16" rx="3" fill="white"/><text x="387" y="600" font-family="monospace" font-size="11">3</text>
<text x="610" y="232" font-family="monospace" font-size="12" font-weight="normal">3. REL-SW-COORDINATOR</text>
<text x="610" y="250" font-family="monospace" font-size="12" font-weight="normal">SW-APPLIANCE-CONTROLLER → SW-BREW-COORDINATOR</text>
<text x="610" y="268" font-family="monospace" font-size="12" font-weight="normal">contains</text>
<path data-edge="REL-SW-DEPLOYMENT" d="M376 618 H490 V136 H376" fill="none" stroke="#78909c" marker-end="url(#arrow)"/>
<rect x="384" y="606" width="34" height="16" rx="3" fill="white"/><text x="387" y="618" font-family="monospace" font-size="11">4</text>
<text x="610" y="298" font-family="monospace" font-size="12" font-weight="normal">4. REL-SW-DEPLOYMENT</text>
<text x="610" y="316" font-family="monospace" font-size="12" font-weight="normal">SW-APPLIANCE-CONTROLLER → DEP-COUNTERTOP-DEVICE</text>
<text x="610" y="334" font-family="monospace" font-size="12" font-weight="normal">deployed to</text>
<path data-edge="REL-SW-HARDWARE" d="M376 636 H508 V244 H376" fill="none" stroke="#78909c" marker-end="url(#arrow)"/>
<rect x="384" y="624" width="34" height="16" rx="3" fill="white"/><text x="387" y="636" font-family="monospace" font-size="11">5</text>
<text x="610" y="364" font-family="monospace" font-size="12" font-weight="normal">5. REL-SW-HARDWARE</text>
<text x="610" y="382" font-family="monospace" font-size="12" font-weight="normal">SW-APPLIANCE-CONTROLLER → HW-APPLIANCE-CHASSIS</text>
<text x="610" y="400" font-family="monospace" font-size="12" font-weight="normal">allocated to</text>
<path data-edge="REL-SW-TEMPERATURE" d="M376 654 H526 V814 H376" fill="none" stroke="#78909c" marker-end="url(#arrow)"/>
<rect x="384" y="642" width="34" height="16" rx="3" fill="white"/><text x="387" y="654" font-family="monospace" font-size="11">6</text>
<text x="610" y="430" font-family="monospace" font-size="12" font-weight="normal">6. REL-SW-TEMPERATURE</text>
<text x="610" y="448" font-family="monospace" font-size="12" font-weight="normal">SW-APPLIANCE-CONTROLLER → SW-TEMPERATURE-CONTROLLER</text>
<text x="610" y="466" font-family="monospace" font-size="12" font-weight="normal">contains</text>
<path data-edge="REL-WATER-HEATER" d="M376 512 H544 V314 H376" fill="none" stroke="#78909c" marker-end="url(#arrow)"/>
<rect x="384" y="500" width="34" height="16" rx="3" fill="white"/><text x="387" y="512" font-family="monospace" font-size="11">7</text>
<text x="610" y="496" font-family="monospace" font-size="12" font-weight="normal">7. REL-WATER-HEATER</text>
<text x="610" y="514" font-family="monospace" font-size="12" font-weight="normal">HW-WATER-SYSTEM → HW-HEATER</text>
<text x="610" y="532" font-family="monospace" font-size="12" font-weight="normal">contains</text>
<path data-edge="REL-WATER-PUMP" d="M376 530 H562 V404 H376" fill="none" stroke="#78909c" marker-end="url(#arrow)"/>
<rect x="384" y="518" width="34" height="16" rx="3" fill="white"/><text x="387" y="530" font-family="monospace" font-size="11">8</text>
<text x="610" y="562" font-family="monospace" font-size="12" font-weight="normal">8. REL-WATER-PUMP</text>
<text x="610" y="580" font-family="monospace" font-size="12" font-weight="normal">HW-WATER-SYSTEM → HW-PUMP</text>
<text x="610" y="598" font-family="monospace" font-size="12" font-weight="normal">contains</text>
<g id="DEP-COUNTERTOP-DEVICE"><rect x="36" y="100" width="340" height="66" rx="10" fill="#ede7f6" stroke="#5e35b1" stroke-width="2"/>
<text x="50" y="124" font-family="monospace" font-size="13" font-weight="bold">Countertop Device</text>
<text x="50" y="142" font-family="monospace" font-size="11" font-weight="normal">DEP-COUNTERTOP-DEVICE</text>
</g>
<g id="HW-APPLIANCE-CHASSIS"><rect x="36" y="190" width="340" height="82" rx="10" fill="#ede7f6" stroke="#5e35b1" stroke-width="2"/>
<text x="50" y="214" font-family="monospace" font-size="13" font-weight="bold">Appliance Chassis</text>
<text x="50" y="232" font-family="monospace" font-size="11" font-weight="normal">HW-APPLIANCE-CHASSIS</text>
</g>
<g id="HW-HEATER"><rect x="36" y="296" width="340" height="66" rx="10" fill="#ede7f6" stroke="#5e35b1" stroke-width="2"/>
<text x="50" y="320" font-family="monospace" font-size="13" font-weight="bold">Thermoblock Heater</text>
<text x="50" y="338" font-family="monospace" font-size="11" font-weight="normal">HW-HEATER</text>
</g>
<g id="HW-PUMP"><rect x="36" y="386" width="340" height="66" rx="10" fill="#ede7f6" stroke="#5e35b1" stroke-width="2"/>
<text x="50" y="410" font-family="monospace" font-size="13" font-weight="bold">Water Pump</text>
<text x="50" y="428" font-family="monospace" font-size="11" font-weight="normal">HW-PUMP</text>
</g>
<g id="HW-WATER-SYSTEM"><rect x="36" y="476" width="340" height="82" rx="10" fill="#ede7f6" stroke="#5e35b1" stroke-width="2"/>
<text x="50" y="500" font-family="monospace" font-size="13" font-weight="bold">Water System</text>
<text x="50" y="518" font-family="monospace" font-size="11" font-weight="normal">HW-WATER-SYSTEM</text>
</g>
<g id="SW-APPLIANCE-CONTROLLER"><rect x="36" y="582" width="340" height="100" rx="10" fill="#eceff1" stroke="#455a64" stroke-width="2"/>
<text x="50" y="606" font-family="monospace" font-size="13" font-weight="bold">Appliance Controller</text>
<text x="50" y="624" font-family="monospace" font-size="11" font-weight="normal">SW-APPLIANCE-CONTROLLER</text>
</g>
<g id="SW-BREW-COORDINATOR"><rect x="36" y="706" width="340" height="66" rx="10" fill="#eceff1" stroke="#455a64" stroke-width="2"/>
<text x="50" y="730" font-family="monospace" font-size="13" font-weight="bold">Brew Coordinator</text>
<text x="50" y="748" font-family="monospace" font-size="11" font-weight="normal">SW-BREW-COORDINATOR</text>
</g>
<g id="SW-TEMPERATURE-CONTROLLER"><rect x="36" y="796" width="340" height="66" rx="10" fill="#eceff1" stroke="#455a64" stroke-width="2"/>
<text x="50" y="820" font-family="monospace" font-size="13" font-weight="bold">Temperature Controller</text>
<text x="50" y="838" font-family="monospace" font-size="11" font-weight="normal">SW-TEMPERATURE-CONTROLLER</text>
</g>
</svg>
